<mxfile host="app.diagrams.net" modified="2023-09-07T23:23:01.120Z" agent="Mozilla/5.0 (X11; Linux x86_64) AppleWebKit/537.36 (KHTML, like Gecko) Chrome/115.0.0.0 Safari/537.36" etag="G7QLVX5Eb0wzG981kSRN" version="21.6.9" type="github">
  <diagram name="Page-1" id="i_27ZkHJzBoeAgOc7Ntv">
    <mxGraphModel dx="1050" dy="523" grid="1" gridSize="10" guides="1" tooltips="1" connect="1" arrows="1" fold="1" page="1" pageScale="1" pageWidth="827" pageHeight="1169" math="0" shadow="0">
      <root>
        <mxCell id="0" />
        <mxCell id="1" parent="0" />
        <mxCell id="aGtWWf34lXOL8BwYHWwa-8" value="" style="group" vertex="1" connectable="0" parent="1">
          <mxGeometry x="40" y="210" width="260" height="140" as="geometry" />
        </mxCell>
        <mxCell id="aGtWWf34lXOL8BwYHWwa-1" value="input" style="shape=step;perimeter=stepPerimeter;whiteSpace=wrap;html=1;fixedSize=1;" vertex="1" parent="aGtWWf34lXOL8BwYHWwa-8">
          <mxGeometry width="90" height="40" as="geometry" />
        </mxCell>
        <mxCell id="aGtWWf34lXOL8BwYHWwa-2" value="clk" style="shape=step;perimeter=stepPerimeter;whiteSpace=wrap;html=1;fixedSize=1;" vertex="1" parent="aGtWWf34lXOL8BwYHWwa-8">
          <mxGeometry y="50" width="90" height="40" as="geometry" />
        </mxCell>
        <mxCell id="aGtWWf34lXOL8BwYHWwa-3" value="rst" style="shape=step;perimeter=stepPerimeter;whiteSpace=wrap;html=1;fixedSize=1;" vertex="1" parent="aGtWWf34lXOL8BwYHWwa-8">
          <mxGeometry y="100" width="90" height="40" as="geometry" />
        </mxCell>
        <mxCell id="aGtWWf34lXOL8BwYHWwa-4" value="Input Concatenator" style="rounded=0;whiteSpace=wrap;html=1;" vertex="1" parent="aGtWWf34lXOL8BwYHWwa-8">
          <mxGeometry x="170" y="30" width="90" height="80" as="geometry" />
        </mxCell>
        <mxCell id="aGtWWf34lXOL8BwYHWwa-5" value="" style="endArrow=classic;html=1;rounded=0;exitX=1;exitY=0.5;exitDx=0;exitDy=0;entryX=0;entryY=0.25;entryDx=0;entryDy=0;" edge="1" parent="aGtWWf34lXOL8BwYHWwa-8" source="aGtWWf34lXOL8BwYHWwa-1" target="aGtWWf34lXOL8BwYHWwa-4">
          <mxGeometry width="50" height="50" relative="1" as="geometry">
            <mxPoint x="350" y="90" as="sourcePoint" />
            <mxPoint x="400" y="40" as="targetPoint" />
            <Array as="points">
              <mxPoint x="120" y="20" />
              <mxPoint x="120" y="50" />
            </Array>
          </mxGeometry>
        </mxCell>
        <mxCell id="aGtWWf34lXOL8BwYHWwa-6" value="" style="endArrow=classic;html=1;rounded=0;exitX=1;exitY=0.5;exitDx=0;exitDy=0;entryX=0;entryY=0.5;entryDx=0;entryDy=0;" edge="1" parent="aGtWWf34lXOL8BwYHWwa-8" source="aGtWWf34lXOL8BwYHWwa-2" target="aGtWWf34lXOL8BwYHWwa-4">
          <mxGeometry width="50" height="50" relative="1" as="geometry">
            <mxPoint x="350" y="90" as="sourcePoint" />
            <mxPoint x="400" y="40" as="targetPoint" />
          </mxGeometry>
        </mxCell>
        <mxCell id="aGtWWf34lXOL8BwYHWwa-7" value="" style="endArrow=classic;html=1;rounded=0;exitX=1;exitY=0.5;exitDx=0;exitDy=0;entryX=0;entryY=0.75;entryDx=0;entryDy=0;" edge="1" parent="aGtWWf34lXOL8BwYHWwa-8" source="aGtWWf34lXOL8BwYHWwa-3" target="aGtWWf34lXOL8BwYHWwa-4">
          <mxGeometry width="50" height="50" relative="1" as="geometry">
            <mxPoint x="350" y="90" as="sourcePoint" />
            <mxPoint x="400" y="40" as="targetPoint" />
            <Array as="points">
              <mxPoint x="120" y="120" />
              <mxPoint x="120" y="90" />
            </Array>
          </mxGeometry>
        </mxCell>
        <mxCell id="aGtWWf34lXOL8BwYHWwa-16" value="input" style="text;html=1;strokeColor=none;fillColor=none;align=center;verticalAlign=middle;whiteSpace=wrap;rounded=0;" vertex="1" parent="aGtWWf34lXOL8BwYHWwa-8">
          <mxGeometry x="80" width="60" height="30" as="geometry" />
        </mxCell>
        <mxCell id="aGtWWf34lXOL8BwYHWwa-17" value="clk" style="text;html=1;strokeColor=none;fillColor=none;align=center;verticalAlign=middle;whiteSpace=wrap;rounded=0;" vertex="1" parent="aGtWWf34lXOL8BwYHWwa-8">
          <mxGeometry x="70" y="50" width="60" height="30" as="geometry" />
        </mxCell>
        <mxCell id="aGtWWf34lXOL8BwYHWwa-18" value="rst" style="text;html=1;strokeColor=none;fillColor=none;align=center;verticalAlign=middle;whiteSpace=wrap;rounded=0;" vertex="1" parent="aGtWWf34lXOL8BwYHWwa-8">
          <mxGeometry x="70" y="110" width="60" height="30" as="geometry" />
        </mxCell>
        <mxCell id="aGtWWf34lXOL8BwYHWwa-10" value="FSM 1: Sequence Detector" style="rounded=0;whiteSpace=wrap;html=1;" vertex="1" parent="1">
          <mxGeometry x="380" y="240" width="90" height="80" as="geometry" />
        </mxCell>
        <mxCell id="aGtWWf34lXOL8BwYHWwa-11" value="" style="endArrow=classic;html=1;rounded=0;exitX=1;exitY=0.5;exitDx=0;exitDy=0;entryX=0;entryY=0.5;entryDx=0;entryDy=0;" edge="1" parent="1" source="aGtWWf34lXOL8BwYHWwa-4" target="aGtWWf34lXOL8BwYHWwa-10">
          <mxGeometry width="50" height="50" relative="1" as="geometry">
            <mxPoint x="390" y="300" as="sourcePoint" />
            <mxPoint x="440" y="250" as="targetPoint" />
          </mxGeometry>
        </mxCell>
        <mxCell id="aGtWWf34lXOL8BwYHWwa-12" value="FSM 2:&lt;br&gt;&amp;nbsp;Clock Counter" style="rounded=0;whiteSpace=wrap;html=1;" vertex="1" parent="1">
          <mxGeometry x="560" y="240" width="90" height="80" as="geometry" />
        </mxCell>
        <mxCell id="aGtWWf34lXOL8BwYHWwa-13" value="" style="endArrow=classic;html=1;rounded=0;exitX=1;exitY=0.5;exitDx=0;exitDy=0;entryX=0;entryY=0.5;entryDx=0;entryDy=0;" edge="1" parent="1" source="aGtWWf34lXOL8BwYHWwa-10" target="aGtWWf34lXOL8BwYHWwa-12">
          <mxGeometry width="50" height="50" relative="1" as="geometry">
            <mxPoint x="480" y="340" as="sourcePoint" />
            <mxPoint x="530" y="340" as="targetPoint" />
          </mxGeometry>
        </mxCell>
        <mxCell id="aGtWWf34lXOL8BwYHWwa-14" value="z_flag" style="shape=step;perimeter=stepPerimeter;whiteSpace=wrap;html=1;fixedSize=1;" vertex="1" parent="1">
          <mxGeometry x="720" y="260" width="90" height="40" as="geometry" />
        </mxCell>
        <mxCell id="aGtWWf34lXOL8BwYHWwa-15" value="" style="endArrow=classic;html=1;rounded=0;exitX=1;exitY=0.5;exitDx=0;exitDy=0;entryX=0;entryY=0.5;entryDx=0;entryDy=0;" edge="1" parent="1" source="aGtWWf34lXOL8BwYHWwa-12" target="aGtWWf34lXOL8BwYHWwa-14">
          <mxGeometry width="50" height="50" relative="1" as="geometry">
            <mxPoint x="770" y="380" as="sourcePoint" />
            <mxPoint x="820" y="380" as="targetPoint" />
          </mxGeometry>
        </mxCell>
        <mxCell id="aGtWWf34lXOL8BwYHWwa-19" value="inputs 4:0" style="text;html=1;strokeColor=none;fillColor=none;align=center;verticalAlign=middle;whiteSpace=wrap;rounded=0;" vertex="1" parent="1">
          <mxGeometry x="300" y="240" width="60" height="30" as="geometry" />
        </mxCell>
        <mxCell id="aGtWWf34lXOL8BwYHWwa-22" value="" style="group" vertex="1" connectable="0" parent="1">
          <mxGeometry x="320" y="270" width="30" height="20" as="geometry" />
        </mxCell>
        <mxCell id="aGtWWf34lXOL8BwYHWwa-20" value="" style="endArrow=none;html=1;rounded=0;" edge="1" parent="aGtWWf34lXOL8BwYHWwa-22">
          <mxGeometry width="50" height="50" relative="1" as="geometry">
            <mxPoint y="20" as="sourcePoint" />
            <mxPoint x="20" as="targetPoint" />
          </mxGeometry>
        </mxCell>
        <mxCell id="aGtWWf34lXOL8BwYHWwa-21" value="" style="endArrow=none;html=1;rounded=0;" edge="1" parent="aGtWWf34lXOL8BwYHWwa-22">
          <mxGeometry width="50" height="50" relative="1" as="geometry">
            <mxPoint x="10" y="20" as="sourcePoint" />
            <mxPoint x="30" as="targetPoint" />
          </mxGeometry>
        </mxCell>
        <mxCell id="aGtWWf34lXOL8BwYHWwa-23" value="z_flag" style="text;html=1;strokeColor=none;fillColor=none;align=center;verticalAlign=middle;whiteSpace=wrap;rounded=0;" vertex="1" parent="1">
          <mxGeometry x="640" y="260" width="60" height="30" as="geometry" />
        </mxCell>
        <mxCell id="aGtWWf34lXOL8BwYHWwa-24" value="Sequence" style="text;html=1;strokeColor=none;fillColor=none;align=center;verticalAlign=middle;whiteSpace=wrap;rounded=0;" vertex="1" parent="1">
          <mxGeometry x="470" y="250" width="60" height="30" as="geometry" />
        </mxCell>
      </root>
    </mxGraphModel>
  </diagram>
</mxfile>
